<svg width="216" height="105" viewBox="0 0 216 105" fill="none" xmlns="http://www.w3.org/2000/svg">
<path d="M54.3141 27.8906H48.5173V24.2344H54.3141C55.21 24.2344 55.9391 24.0885 56.5016 23.7969C57.0641 23.4948 57.4756 23.0781 57.736 22.5469C57.9964 22.0156 58.1266 21.4167 58.1266 20.75C58.1266 20.0729 57.9964 19.4427 57.736 18.8594C57.4756 18.276 57.0641 17.8073 56.5016 17.4531C55.9391 17.099 55.21 16.9219 54.3141 16.9219H50.1423V36H45.4548V13.25H54.3141C56.0954 13.25 57.6214 13.5729 58.8923 14.2188C60.1735 14.8542 61.1527 15.7344 61.8298 16.8594C62.5069 17.9844 62.8454 19.2708 62.8454 20.7188C62.8454 22.1875 62.5069 23.4583 61.8298 24.5312C61.1527 25.6042 60.1735 26.4323 58.8923 27.0156C57.6214 27.599 56.0954 27.8906 54.3141 27.8906ZM64.861 27.7188V27.3906C64.861 26.151 65.0381 25.0104 65.3923 23.9688C65.7464 22.9167 66.2621 22.0052 66.9391 21.2344C67.6162 20.4635 68.4496 19.8646 69.4391 19.4375C70.4287 19 71.5641 18.7812 72.8454 18.7812C74.1266 18.7812 75.2673 19 76.2673 19.4375C77.2673 19.8646 78.1058 20.4635 78.7829 21.2344C79.4704 22.0052 79.9912 22.9167 80.3454 23.9688C80.6996 25.0104 80.8766 26.151 80.8766 27.3906V27.7188C80.8766 28.9479 80.6996 30.0885 80.3454 31.1406C79.9912 32.1823 79.4704 33.0938 78.7829 33.875C78.1058 34.6458 77.2725 35.2448 76.2829 35.6719C75.2933 36.099 74.1579 36.3125 72.8766 36.3125C71.5954 36.3125 70.4548 36.099 69.4548 35.6719C68.4652 35.2448 67.6266 34.6458 66.9391 33.875C66.2621 33.0938 65.7464 32.1823 65.3923 31.1406C65.0381 30.0885 64.861 28.9479 64.861 27.7188ZM69.361 27.3906V27.7188C69.361 28.4271 69.4235 29.0885 69.5485 29.7031C69.6735 30.3177 69.8714 30.8594 70.1423 31.3281C70.4235 31.7865 70.7881 32.1458 71.236 32.4062C71.6839 32.6667 72.2308 32.7969 72.8766 32.7969C73.5016 32.7969 74.0381 32.6667 74.486 32.4062C74.9339 32.1458 75.2933 31.7865 75.5641 31.3281C75.835 30.8594 76.0329 30.3177 76.1579 29.7031C76.2933 29.0885 76.361 28.4271 76.361 27.7188V27.3906C76.361 26.7031 76.2933 26.0573 76.1579 25.4531C76.0329 24.8385 75.8298 24.2969 75.5485 23.8281C75.2777 23.349 74.9183 22.974 74.4704 22.7031C74.0225 22.4323 73.4808 22.2969 72.8454 22.2969C72.21 22.2969 71.6683 22.4323 71.2204 22.7031C70.7829 22.974 70.4235 23.349 70.1423 23.8281C69.8714 24.2969 69.6735 24.8385 69.5485 25.4531C69.4235 26.0573 69.361 26.7031 69.361 27.3906ZM103.642 19.0938V22.2812H93.7985V19.0938H103.642ZM96.236 14.9219H100.736V30.9062C100.736 31.3958 100.799 31.7708 100.924 32.0312C101.059 32.2917 101.257 32.474 101.517 32.5781C101.778 32.6719 102.106 32.7188 102.502 32.7188C102.783 32.7188 103.033 32.7083 103.252 32.6875C103.481 32.6562 103.674 32.625 103.83 32.5938L103.845 35.9062C103.46 36.0312 103.043 36.1302 102.595 36.2031C102.147 36.276 101.653 36.3125 101.111 36.3125C100.121 36.3125 99.2569 36.151 98.5173 35.8281C97.7881 35.4948 97.2256 34.9635 96.8298 34.2344C96.4339 33.5052 96.236 32.5469 96.236 31.3594V14.9219ZM111.939 36H107.408V17.5938C107.408 16.3125 107.658 15.2344 108.158 14.3594C108.668 13.474 109.382 12.8073 110.299 12.3594C111.226 11.901 112.325 11.6719 113.595 11.6719C114.012 11.6719 114.413 11.7031 114.799 11.7656C115.184 11.8177 115.559 11.8854 115.924 11.9688L115.877 15.3594C115.679 15.3073 115.47 15.2708 115.252 15.25C115.033 15.2292 114.778 15.2188 114.486 15.2188C113.944 15.2188 113.481 15.3125 113.095 15.5C112.72 15.6771 112.434 15.9427 112.236 16.2969C112.038 16.651 111.939 17.0833 111.939 17.5938V36ZM115.314 19.0938V22.2812H104.892V19.0938H115.314ZM140.486 12V36H135.97V12H140.486ZM148.955 19.0938V36H144.439V19.0938H148.955ZM144.158 14.6875C144.158 14.0312 144.387 13.4896 144.845 13.0625C145.304 12.6354 145.918 12.4219 146.689 12.4219C147.45 12.4219 148.059 12.6354 148.517 13.0625C148.986 13.4896 149.22 14.0312 149.22 14.6875C149.22 15.3438 148.986 15.8854 148.517 16.3125C148.059 16.7396 147.45 16.9531 146.689 16.9531C145.918 16.9531 145.304 16.7396 144.845 16.3125C144.387 15.8854 144.158 15.3438 144.158 14.6875ZM151.955 27.7188V27.3906C151.955 26.151 152.132 25.0104 152.486 23.9688C152.84 22.9167 153.356 22.0052 154.033 21.2344C154.71 20.4635 155.543 19.8646 156.533 19.4375C157.522 19 158.658 18.7812 159.939 18.7812C161.22 18.7812 162.361 19 163.361 19.4375C164.361 19.8646 165.2 20.4635 165.877 21.2344C166.564 22.0052 167.085 22.9167 167.439 23.9688C167.793 25.0104 167.97 26.151 167.97 27.3906V27.7188C167.97 28.9479 167.793 30.0885 167.439 31.1406C167.085 32.1823 166.564 33.0938 165.877 33.875C165.2 34.6458 164.366 35.2448 163.377 35.6719C162.387 36.099 161.252 36.3125 159.97 36.3125C158.689 36.3125 157.549 36.099 156.549 35.6719C155.559 35.2448 154.72 34.6458 154.033 33.875C153.356 33.0938 152.84 32.1823 152.486 31.1406C152.132 30.0885 151.955 28.9479 151.955 27.7188ZM156.455 27.3906V27.7188C156.455 28.4271 156.517 29.0885 156.642 29.7031C156.767 30.3177 156.965 30.8594 157.236 31.3281C157.517 31.7865 157.882 32.1458 158.33 32.4062C158.778 32.6667 159.325 32.7969 159.97 32.7969C160.595 32.7969 161.132 32.6667 161.58 32.4062C162.028 32.1458 162.387 31.7865 162.658 31.3281C162.929 30.8594 163.127 30.3177 163.252 29.7031C163.387 29.0885 163.455 28.4271 163.455 27.7188V27.3906C163.455 26.7031 163.387 26.0573 163.252 25.4531C163.127 24.8385 162.924 24.2969 162.642 23.8281C162.371 23.349 162.012 22.974 161.564 22.7031C161.116 22.4323 160.575 22.2969 159.939 22.2969C159.304 22.2969 158.762 22.4323 158.314 22.7031C157.877 22.974 157.517 23.349 157.236 23.8281C156.965 24.2969 156.767 24.8385 156.642 25.4531C156.517 26.0573 156.455 26.7031 156.455 27.3906Z" fill="white"/>
<path d="M88.1423 22.7812V36H83.6423V19.0938H87.8766L88.1423 22.7812ZM93.236 18.9844L93.1579 23.1562C92.9391 23.125 92.6735 23.099 92.361 23.0781C92.0589 23.0469 91.7829 23.0312 91.5329 23.0312C90.8975 23.0312 90.3454 23.1146 89.8766 23.2812C89.4183 23.4375 89.0329 23.6719 88.7204 23.9844C88.4183 24.2969 88.1891 24.6771 88.0329 25.125C87.8871 25.5729 87.8037 26.0833 87.7829 26.6562L86.8766 26.375C86.8766 25.2812 86.986 24.276 87.2048 23.3594C87.4235 22.4323 87.7412 21.625 88.1579 20.9375C88.585 20.25 89.1058 19.7188 89.7204 19.3438C90.335 18.9688 91.0381 18.7812 91.8298 18.7812C92.0798 18.7812 92.335 18.8021 92.5954 18.8438C92.8558 18.875 93.0694 18.9219 93.236 18.9844ZM116.955 27.7188V27.3906C116.955 26.151 117.132 25.0104 117.486 23.9688C117.84 22.9167 118.356 22.0052 119.033 21.2344C119.71 20.4635 120.543 19.8646 121.533 19.4375C122.522 19 123.658 18.7812 124.939 18.7812C126.22 18.7812 127.361 19 128.361 19.4375C129.361 19.8646 130.2 20.4635 130.877 21.2344C131.564 22.0052 132.085 22.9167 132.439 23.9688C132.793 25.0104 132.97 26.151 132.97 27.3906V27.7188C132.97 28.9479 132.793 30.0885 132.439 31.1406C132.085 32.1823 131.564 33.0938 130.877 33.875C130.2 34.6458 129.366 35.2448 128.377 35.6719C127.387 36.099 126.252 36.3125 124.97 36.3125C123.689 36.3125 122.549 36.099 121.549 35.6719C120.559 35.2448 119.72 34.6458 119.033 33.875C118.356 33.0938 117.84 32.1823 117.486 31.1406C117.132 30.0885 116.955 28.9479 116.955 27.7188ZM121.455 27.3906V27.7188C121.455 28.4271 121.517 29.0885 121.642 29.7031C121.767 30.3177 121.965 30.8594 122.236 31.3281C122.517 31.7865 122.882 32.1458 123.33 32.4062C123.778 32.6667 124.325 32.7969 124.97 32.7969C125.595 32.7969 126.132 32.6667 126.58 32.4062C127.028 32.1458 127.387 31.7865 127.658 31.3281C127.929 30.8594 128.127 30.3177 128.252 29.7031C128.387 29.0885 128.455 28.4271 128.455 27.7188V27.3906C128.455 26.7031 128.387 26.0573 128.252 25.4531C128.127 24.8385 127.924 24.2969 127.642 23.8281C127.371 23.349 127.012 22.974 126.564 22.7031C126.116 22.4323 125.575 22.2969 124.939 22.2969C124.304 22.2969 123.762 22.4323 123.314 22.7031C122.877 22.974 122.517 23.349 122.236 23.8281C121.965 24.2969 121.767 24.8385 121.642 25.4531C121.517 26.0573 121.455 26.7031 121.455 27.3906Z" fill="#00875F"/>
<path d="M5.3363 69.8594H1.63318L12.5394 44.4219H16.2582L5.3363 69.8594ZM22.9301 69.8594H19.2269L30.1332 44.4219H33.8519L22.9301 69.8594ZM48.9769 66.5L47.8519 62.4688H40.7269L39.5707 66.5H35.7582L41.8051 46.0781H47.1801L53.2269 66.5H48.9769ZM44.3363 49.8281L41.6488 59.3281H46.9926L44.3363 49.8281ZM64.9301 66.5V56.1562C64.9301 54.4167 64.2842 53.5469 62.9926 53.5469C62.3467 53.5469 61.7269 53.8073 61.1332 54.3281C60.5498 54.849 59.9301 55.5573 59.2738 56.4531V66.5H55.4613V50.625H58.7582L58.8519 52.9688C59.1748 52.5625 59.5082 52.1927 59.8519 51.8594C60.2061 51.526 60.5863 51.2448 60.9926 51.0156C61.3988 50.776 61.8363 50.5938 62.3051 50.4688C62.7738 50.3438 63.2998 50.2812 63.8832 50.2812C64.6957 50.2812 65.404 50.4167 66.0082 50.6875C66.6123 50.9479 67.1176 51.3229 67.5238 51.8125C67.9301 52.2917 68.2321 52.875 68.4301 53.5625C68.6384 54.2396 68.7426 55 68.7426 55.8438V66.5H64.9301ZM83.0394 66.5L82.9457 64.1562C82.6123 64.5625 82.2686 64.9323 81.9144 65.2656C81.5603 65.599 81.1801 65.8854 80.7738 66.125C80.3676 66.3542 79.9301 66.5312 79.4613 66.6562C79.003 66.7917 78.4926 66.8594 77.9301 66.8594C76.9926 66.8594 76.1592 66.6719 75.4301 66.2969C74.7009 65.9219 74.0863 65.3906 73.5863 64.7031C73.0967 64.0052 72.7217 63.1615 72.4613 62.1719C72.2009 61.1823 72.0707 60.0781 72.0707 58.8594C72.0707 57.401 72.2738 56.1406 72.6801 55.0781C73.0967 54.0052 73.6696 53.1198 74.3988 52.4219C75.128 51.7135 75.9926 51.1927 76.9926 50.8594C77.9926 50.5156 79.0811 50.3438 80.2582 50.3438C80.654 50.3438 81.0498 50.3698 81.4457 50.4219C81.8519 50.474 82.2113 50.5417 82.5238 50.625V44.4219H86.3363V66.5H83.0394ZM76.0707 58.6875C76.0707 59.5625 76.128 60.3125 76.2426 60.9375C76.3676 61.5521 76.5446 62.0573 76.7738 62.4531C77.0134 62.849 77.3051 63.1406 77.6488 63.3281C77.9926 63.5052 78.3832 63.5938 78.8207 63.5938C79.4665 63.5938 80.0811 63.3333 80.6644 62.8125C81.2478 62.2917 81.8676 61.5781 82.5238 60.6719V53.7344C82.2217 53.6198 81.8467 53.526 81.3988 53.4531C80.9613 53.3802 80.5186 53.3438 80.0707 53.3438C79.4561 53.3438 78.904 53.4688 78.4144 53.7188C77.9248 53.9688 77.503 54.3229 77.1488 54.7812C76.8051 55.2396 76.5394 55.8021 76.3519 56.4688C76.1644 57.125 76.0707 57.8646 76.0707 58.6875ZM100.868 56.7969C100.888 56.2031 100.857 55.6979 100.774 55.2812C100.701 54.8646 100.576 54.5208 100.399 54.25C100.232 53.9792 100.024 53.7812 99.7738 53.6562C99.5238 53.5312 99.2373 53.4688 98.9144 53.4688C98.3519 53.4688 97.7686 53.7031 97.1644 54.1719C96.5707 54.6302 95.9144 55.3906 95.1957 56.4531V66.5H91.2894V50.625H94.7426L94.8832 52.9375C95.1436 52.5312 95.4353 52.1667 95.7582 51.8438C96.0915 51.5208 96.4561 51.2448 96.8519 51.0156C97.2582 50.776 97.7061 50.5938 98.1957 50.4688C98.6853 50.3438 99.2217 50.2812 99.8051 50.2812C100.607 50.2812 101.315 50.4219 101.93 50.7031C102.555 50.974 103.076 51.3802 103.493 51.9219C103.92 52.4635 104.232 53.1458 104.43 53.9688C104.638 54.7812 104.727 55.724 104.696 56.7969H100.868ZM122.071 57.3438C122.071 57.6042 122.06 57.9427 122.039 58.3594C122.029 58.776 122.008 59.1667 121.977 59.5312H111.539C111.539 60.2292 111.644 60.8438 111.852 61.375C112.071 61.9062 112.373 62.3542 112.758 62.7188C113.154 63.0729 113.623 63.3438 114.164 63.5312C114.717 63.7188 115.326 63.8125 115.993 63.8125C116.763 63.8125 117.586 63.7552 118.461 63.6406C119.347 63.5156 120.263 63.3177 121.211 63.0469V66.0781C120.805 66.1927 120.362 66.2969 119.883 66.3906C119.404 66.4844 118.914 66.5677 118.414 66.6406C117.914 66.7135 117.409 66.7656 116.899 66.7969C116.388 66.8385 115.894 66.8594 115.414 66.8594C114.206 66.8594 113.123 66.6875 112.164 66.3438C111.206 66 110.394 65.4948 109.727 64.8281C109.06 64.151 108.55 63.3177 108.196 62.3281C107.842 61.3385 107.664 60.1927 107.664 58.8906C107.664 57.599 107.842 56.4271 108.196 55.375C108.55 54.3125 109.05 53.4062 109.696 52.6562C110.342 51.8958 111.123 51.3125 112.039 50.9062C112.967 50.4896 113.998 50.2812 115.133 50.2812C116.258 50.2812 117.253 50.4583 118.118 50.8125C118.982 51.1562 119.706 51.6406 120.289 52.2656C120.873 52.8906 121.315 53.6354 121.618 54.5C121.92 55.3646 122.071 56.3125 122.071 57.3438ZM118.196 56.7969C118.206 56.1719 118.128 55.6302 117.961 55.1719C117.795 54.7031 117.565 54.3177 117.274 54.0156C116.993 53.7135 116.659 53.4896 116.274 53.3438C115.899 53.1979 115.493 53.125 115.055 53.125C114.097 53.125 113.31 53.4479 112.696 54.0938C112.081 54.7292 111.717 55.6302 111.602 56.7969H118.196ZM144.336 66.5V46.0781H148.243V63.2031H156.868V66.5H144.336ZM170.368 46.2812C170.368 46.625 170.305 46.9479 170.18 47.25C170.055 47.5521 169.878 47.8177 169.649 48.0469C169.43 48.2656 169.17 48.4427 168.868 48.5781C168.565 48.7031 168.237 48.7656 167.883 48.7656C167.529 48.7656 167.196 48.7031 166.883 48.5781C166.581 48.4427 166.315 48.2656 166.086 48.0469C165.868 47.8177 165.696 47.5521 165.571 47.25C165.446 46.9479 165.383 46.625 165.383 46.2812C165.383 45.9375 165.446 45.6146 165.571 45.3125C165.696 45.0104 165.868 44.7448 166.086 44.5156C166.315 44.2865 166.581 44.1094 166.883 43.9844C167.196 43.849 167.529 43.7812 167.883 43.7812C168.237 43.7812 168.565 43.849 168.868 43.9844C169.17 44.1094 169.43 44.2865 169.649 44.5156C169.878 44.7448 170.055 45.0104 170.18 45.3125C170.305 45.6146 170.368 45.9375 170.368 46.2812ZM166.149 53.5938H161.664V50.625H170.055V63.5312H174.633V66.5H161.118V63.5312H166.149V53.5938ZM189.821 66.5V55.6875C189.821 55.2917 189.81 54.9479 189.789 54.6562C189.769 54.3542 189.727 54.1042 189.664 53.9062C189.602 53.7083 189.508 53.5625 189.383 53.4688C189.269 53.3646 189.107 53.3125 188.899 53.3125C188.576 53.3125 188.258 53.5312 187.946 53.9688C187.633 54.4062 187.279 55.151 186.883 56.2031V66.5H183.618V55.6875C183.618 55.2917 183.607 54.9479 183.586 54.6562C183.565 54.3542 183.524 54.1042 183.461 53.9062C183.399 53.7083 183.305 53.5625 183.18 53.4688C183.055 53.3646 182.888 53.3125 182.68 53.3125C182.409 53.3125 182.107 53.5312 181.774 53.9688C181.44 54.4062 181.071 55.151 180.664 56.2031V66.5H177.368V50.625H180.196L180.258 52.9375C180.487 52.4688 180.717 52.0677 180.946 51.7344C181.175 51.401 181.42 51.1302 181.68 50.9219C181.94 50.7031 182.217 50.5469 182.508 50.4531C182.81 50.3594 183.149 50.3125 183.524 50.3125C184.409 50.3125 185.081 50.5469 185.539 51.0156C186.008 51.474 186.274 52.1146 186.336 52.9375C186.586 52.4688 186.831 52.0677 187.071 51.7344C187.321 51.401 187.576 51.1302 187.836 50.9219C188.107 50.7031 188.394 50.5469 188.696 50.4531C189.008 50.3594 189.352 50.3125 189.727 50.3125C190.883 50.3125 191.737 50.7188 192.289 51.5312C192.842 52.3333 193.118 53.526 193.118 55.1094V66.5H189.821ZM206.164 66.5L206.071 64.4219C205.737 64.776 205.388 65.1042 205.024 65.4062C204.659 65.6979 204.258 65.9531 203.821 66.1719C203.383 66.3906 202.904 66.5573 202.383 66.6719C201.873 66.7969 201.31 66.8594 200.696 66.8594C199.883 66.8594 199.17 66.7396 198.555 66.5C197.94 66.2604 197.425 65.9271 197.008 65.5C196.592 65.0729 196.274 64.5573 196.055 63.9531C195.847 63.349 195.743 62.6823 195.743 61.9531C195.743 61.2031 195.899 60.5104 196.211 59.875C196.534 59.2396 197.019 58.6927 197.664 58.2344C198.321 57.776 199.133 57.4167 200.102 57.1562C201.081 56.8958 202.227 56.7656 203.539 56.7656H205.618V55.8125C205.618 55.4062 205.56 55.0417 205.446 54.7188C205.331 54.3854 205.144 54.1042 204.883 53.875C204.633 53.6458 204.305 53.4688 203.899 53.3438C203.493 53.2188 202.993 53.1562 202.399 53.1562C201.461 53.1562 200.534 53.2656 199.618 53.4844C198.711 53.6927 197.831 53.9896 196.977 54.375V51.3281C197.737 51.026 198.612 50.776 199.602 50.5781C200.602 50.3802 201.638 50.2812 202.711 50.2812C203.888 50.2812 204.899 50.3958 205.743 50.625C206.586 50.8438 207.279 51.1771 207.821 51.625C208.373 52.0729 208.779 52.6354 209.039 53.3125C209.3 53.9792 209.43 54.7604 209.43 55.6562V66.5H206.164ZM205.618 59.4844H203.289C202.644 59.4844 202.097 59.5469 201.649 59.6719C201.201 59.7969 200.836 59.9688 200.555 60.1875C200.274 60.4062 200.065 60.6615 199.93 60.9531C199.805 61.2344 199.743 61.5365 199.743 61.8594C199.743 62.5052 199.951 63 200.368 63.3438C200.784 63.6771 201.352 63.8438 202.071 63.8438C202.602 63.8438 203.154 63.651 203.727 63.2656C204.3 62.8802 204.93 62.3281 205.618 61.6094V59.4844Z" fill="#015F43"/>
</svg>
